HIERARCHY
ROOT mixamorig:Hips
{
	OFFSET -0.000008 104.274872 1.554316
	CHANNELS 6 Xposition Yposition Zposition Xrotation Yrotation Zrotation
	JOINT mixamorig:Spine
	{
		OFFSET -0.000005 10.181595 0.131519
		CHANNELS 6 Xposition Yposition Zposition Xrotation Yrotation Zrotation
		JOINT mixamorig:Spine1
		{
			OFFSET -0.000000 9.893959 -1.470707
			CHANNELS 6 Xposition Yposition Zposition Xrotation Yrotation Zrotation
			JOINT mixamorig:Spine2
			{
				OFFSET -0.000000 9.220757 -1.370641
				CHANNELS 6 Xposition Yposition Zposition Xrotation Yrotation Zrotation
				JOINT mixamorig:Neck
				{
					OFFSET 0.000001 16.740417 -2.049036
					CHANNELS 6 Xposition Yposition Zposition Xrotation Yrotation Zrotation
					JOINT mixamorig:Head
					{
						OFFSET 0.000000 9.617874 1.685006
						CHANNELS 6 Xposition Yposition Zposition Xrotation Yrotation Zrotation
						JOINT mixamorig:HeadTop_End
						{
							OFFSET 0.000002 22.037354 7.501101
							CHANNELS 6 Xposition Yposition Zposition Xrotation Yrotation Zrotation
							End Site
							{
								OFFSET 0.000168 2310.654297 -282.823242
							}
						}
					}
				}
				JOINT mixamorig:RightShoulder
				{
					OFFSET -4.569970 11.014908 -2.160885
					CHANNELS 6 Xposition Yposition Zposition Xrotation Yrotation Zrotation
					JOINT mixamorig:RightArm
					{
						OFFSET -10.592851 -0.524811 -2.232101
						CHANNELS 6 Xposition Yposition Zposition Xrotation Yrotation Zrotation
						JOINT mixamorig:RightForeArm
						{
							OFFSET -27.841511 0.000031 -0.000004
							CHANNELS 6 Xposition Yposition Zposition Xrotation Yrotation Zrotation
							JOINT mixamorig:RightHand
							{
								OFFSET -28.328831 -0.000015 0.000015
								CHANNELS 6 Xposition Yposition Zposition Xrotation Yrotation Zrotation
								JOINT mixamorig:RightHandThumb1
								{
									OFFSET -2.464806 -1.573990 2.681852
									CHANNELS 6 Xposition Yposition Zposition Xrotation Yrotation Zrotation
									JOINT mixamorig:RightHandThumb2
									{
										OFFSET -3.215179 -1.872803 1.924282
										CHANNELS 6 Xposition Yposition Zposition Xrotation Yrotation Zrotation
										JOINT mixamorig:RightHandThumb3
										{
											OFFSET -2.654831 -1.527969 1.512609
											CHANNELS 6 Xposition Yposition Zposition Xrotation Yrotation Zrotation
											JOINT mixamorig:RightHandThumb4
											{
												OFFSET -2.018814 -1.152008 1.108052
												CHANNELS 6 Xposition Yposition Zposition Xrotation Yrotation Zrotation
												End Site
												{
													OFFSET -188.809540 -114.533607 132.431396
												}
											}
										}
									}
								}
								JOINT mixamorig:RightHandIndex1
								{
									OFFSET -9.108284 -0.517868 2.259835
									CHANNELS 6 Xposition Yposition Zposition Xrotation Yrotation Zrotation
									JOINT mixamorig:RightHandIndex2
									{
										OFFSET -3.699989 0.000000 0.001215
										CHANNELS 6 Xposition Yposition Zposition Xrotation Yrotation Zrotation
										JOINT mixamorig:RightHandIndex3
										{
											OFFSET -2.850006 0.000031 -0.000522
											CHANNELS 6 Xposition Yposition Zposition Xrotation Yrotation Zrotation
											JOINT mixamorig:RightHandIndex4
											{
												OFFSET -2.772186 -0.000015 -0.000020
												CHANNELS 6 Xposition Yposition Zposition Xrotation Yrotation Zrotation
												End Site
												{
													OFFSET -277.218445 0.000000 -0.050231
												}
											}
										}
									}
								}
								JOINT mixamorig:RightHandMiddle1
								{
									OFFSET -9.532516 -0.000031 -0.000023
									CHANNELS 6 Xposition Yposition Zposition Xrotation Yrotation Zrotation
									JOINT mixamorig:RightHandMiddle2
									{
										OFFSET -3.700005 -0.000015 0.003713
										CHANNELS 6 Xposition Yposition Zposition Xrotation Yrotation Zrotation
										JOINT mixamorig:RightHandMiddle3
										{
											OFFSET -2.949974 0.000015 -0.002054
											CHANNELS 6 Xposition Yposition Zposition Xrotation Yrotation Zrotation
											JOINT mixamorig:RightHandMiddle4
											{
												OFFSET -2.946640 0.000000 -0.000156
												CHANNELS 6 Xposition Yposition Zposition Xrotation Yrotation Zrotation
												End Site
												{
													OFFSET -294.664337 0.000000 -0.113670
												}
											}
										}
									}
								}
								JOINT mixamorig:RightHandRing1
								{
									OFFSET -9.103600 -0.043076 -1.865134
									CHANNELS 6 Xposition Yposition Zposition Xrotation Yrotation Zrotation
									JOINT mixamorig:RightHandRing2
									{
										OFFSET -3.379288 0.000000 -0.001055
										CHANNELS 6 Xposition Yposition Zposition Xrotation Yrotation Zrotation
										JOINT mixamorig:RightHandRing3
										{
											OFFSET -2.889687 -0.000015 0.000379
											CHANNELS 6 Xposition Yposition Zposition Xrotation Yrotation Zrotation
											JOINT mixamorig:RightHandRing4
											{
												OFFSET -2.638809 -0.000015 0.000941
												CHANNELS 6 Xposition Yposition Zposition Xrotation Yrotation Zrotation
												End Site
												{
													OFFSET -263.880371 0.000000 0.516020
												}
											}
										}
									}
								}
								JOINT mixamorig:RightHandPinky1
								{
									OFFSET -8.076683 -0.486710 -3.806280
									CHANNELS 6 Xposition Yposition Zposition Xrotation Yrotation Zrotation
									JOINT mixamorig:RightHandPinky2
									{
										OFFSET -3.600014 -0.000015 -0.003747
										CHANNELS 6 Xposition Yposition Zposition Xrotation Yrotation Zrotation
										JOINT mixamorig:RightHandPinky3
										{
											OFFSET -2.099983 0.000000 -0.005739
											CHANNELS 6 Xposition Yposition Zposition Xrotation Yrotation Zrotation
											JOINT mixamorig:RightHandPinky4
											{
												OFFSET -2.115768 -0.000031 -0.003680
												CHANNELS 6 Xposition Yposition Zposition Xrotation Yrotation Zrotation
												End Site
												{
													OFFSET -211.577087 0.000000 -0.350686
												}
											}
										}
									}
								}
							}
						}
					}
				}
				JOINT mixamorig:LeftShoulder
				{
					OFFSET 4.570447 11.014725 -2.160855
					CHANNELS 6 Xposition Yposition Zposition Xrotation Yrotation Zrotation
					JOINT mixamorig:LeftArm
					{
						OFFSET 10.592371 -0.524597 -2.232119
						CHANNELS 6 Xposition Yposition Zposition Xrotation Yrotation Zrotation
						JOINT mixamorig:LeftForeArm
						{
							OFFSET 27.841532 -0.000031 0.000026
							CHANNELS 6 Xposition Yposition Zposition Xrotation Yrotation Zrotation
							JOINT mixamorig:LeftHand
							{
								OFFSET 28.328846 -0.000061 0.000022
								CHANNELS 6 Xposition Yposition Zposition Xrotation Yrotation Zrotation
								JOINT mixamorig:LeftHandThumb1
								{
									OFFSET 2.466141 -1.576172 2.681732
									CHANNELS 6 Xposition Yposition Zposition Xrotation Yrotation Zrotation
									JOINT mixamorig:LeftHandThumb2
									{
										OFFSET 3.217812 -1.872070 1.916482
										CHANNELS 6 Xposition Yposition Zposition Xrotation Yrotation Zrotation
										JOINT mixamorig:LeftHandThumb3
										{
											OFFSET 2.656029 -1.528778 1.514513
											CHANNELS 6 Xposition Yposition Zposition Xrotation Yrotation Zrotation
											JOINT mixamorig:LeftHandThumb4
											{
												OFFSET 2.020889 -1.154053 1.115139
												CHANNELS 6 Xposition Yposition Zposition Xrotation Yrotation Zrotation
												End Site
												{
													OFFSET 190.885437 -115.081749 130.048782
												}
											}
										}
									}
								}
								JOINT mixamorig:LeftHandIndex1
								{
									OFFSET 9.109314 -0.518021 2.259871
									CHANNELS 6 Xposition Yposition Zposition Xrotation Yrotation Zrotation
									JOINT mixamorig:LeftHandIndex2
									{
										OFFSET 3.699989 0.000000 -0.000322
										CHANNELS 6 Xposition Yposition Zposition Xrotation Yrotation Zrotation
										JOINT mixamorig:LeftHandIndex3
										{
											OFFSET 2.850006 0.000000 0.000352
											CHANNELS 6 Xposition Yposition Zposition Xrotation Yrotation Zrotation
											JOINT mixamorig:LeftHandIndex4
											{
												OFFSET 2.774864 -0.000031 -0.000027
												CHANNELS 6 Xposition Yposition Zposition Xrotation Yrotation Zrotation
												End Site
												{
													OFFSET 277.486267 0.000000 -0.009857
												}
											}
										}
									}
								}
								JOINT mixamorig:LeftHandMiddle1
								{
									OFFSET 9.533394 0.000061 0.000044
									CHANNELS 6 Xposition Yposition Zposition Xrotation Yrotation Zrotation
									JOINT mixamorig:LeftHandMiddle2
									{
										OFFSET 3.699989 -0.000015 -0.000231
										CHANNELS 6 Xposition Yposition Zposition Xrotation Yrotation Zrotation
										JOINT mixamorig:LeftHandMiddle3
										{
											OFFSET 2.949997 -0.000015 -0.000059
											CHANNELS 6 Xposition Yposition Zposition Xrotation Yrotation Zrotation
											JOINT mixamorig:LeftHandMiddle4
											{
												OFFSET 2.952896 0.000031 0.000063
												CHANNELS 6 Xposition Yposition Zposition Xrotation Yrotation Zrotation
												End Site
												{
													OFFSET 295.289337 0.000000 0.022810
												}
											}
										}
									}
								}
								JOINT mixamorig:LeftHandRing1
								{
									OFFSET 9.104523 -0.042999 -1.865074
									CHANNELS 6 Xposition Yposition Zposition Xrotation Yrotation Zrotation
									JOINT mixamorig:LeftHandRing2
									{
										OFFSET 3.150009 -0.000031 0.000043
										CHANNELS 6 Xposition Yposition Zposition Xrotation Yrotation Zrotation
										JOINT mixamorig:LeftHandRing3
										{
											OFFSET 2.949982 -0.000015 0.000040
											CHANNELS 6 Xposition Yposition Zposition Xrotation Yrotation Zrotation
											JOINT mixamorig:LeftHandRing4
											{
												OFFSET 2.644348 0.000000 0.000057
												CHANNELS 6 Xposition Yposition Zposition Xrotation Yrotation Zrotation
												End Site
												{
													OFFSET 264.434631 0.000000 0.012105
												}
											}
										}
									}
								}
								JOINT mixamorig:LeftHandPinky1
								{
									OFFSET 8.077789 -0.486847 -3.806259
									CHANNELS 6 Xposition Yposition Zposition Xrotation Yrotation Zrotation
									JOINT mixamorig:LeftHandPinky2
									{
										OFFSET 3.599953 0.000031 0.014727
										CHANNELS 6 Xposition Yposition Zposition Xrotation Yrotation Zrotation
										JOINT mixamorig:LeftHandPinky3
										{
											OFFSET 2.100021 0.000015 0.007705
											CHANNELS 6 Xposition Yposition Zposition Xrotation Yrotation Zrotation
											JOINT mixamorig:LeftHandPinky4
											{
												OFFSET 2.125504 0.000031 0.007517
												CHANNELS 6 Xposition Yposition Zposition Xrotation Yrotation Zrotation
												End Site
												{
													OFFSET 212.550781 0.000000 0.625752
												}
											}
										}
									}
								}
							}
						}
					}
				}
			}
		}
	}
	JOINT mixamorig:RightUpLeg
	{
		OFFSET -8.207787 -6.751648 -1.599560
		CHANNELS 6 Xposition Yposition Zposition Xrotation Yrotation Zrotation
		JOINT mixamorig:RightLeg
		{
			OFFSET -0.000002 -44.370117 0.345942
			CHANNELS 6 Xposition Yposition Zposition Xrotation Yrotation Zrotation
			JOINT mixamorig:RightFoot
			{
				OFFSET 0.000003 -44.423679 -3.043532
				CHANNELS 6 Xposition Yposition Zposition Xrotation Yrotation Zrotation
				JOINT mixamorig:RightToeBase
				{
					OFFSET -0.000002 -8.728671 10.710558
					CHANNELS 6 Xposition Yposition Zposition Xrotation Yrotation Zrotation
					JOINT mixamorig:RightToe_End
					{
						OFFSET -0.000001 -0.000679 9.278119
						CHANNELS 6 Xposition Yposition Zposition Xrotation Yrotation Zrotation
						End Site
						{
							OFFSET 0.000000 -0.067690 927.812134
						}
					}
				}
			}
		}
	}
	JOINT mixamorig:LeftUpLeg
	{
		OFFSET 8.207793 -6.751686 -1.599556
		CHANNELS 6 Xposition Yposition Zposition Xrotation Yrotation Zrotation
		JOINT mixamorig:LeftLeg
		{
			OFFSET -0.000004 -44.370014 0.346954
			CHANNELS 6 Xposition Yposition Zposition Xrotation Yrotation Zrotation
			JOINT mixamorig:LeftFoot
			{
				OFFSET -0.000001 -44.423672 -3.044401
				CHANNELS 6 Xposition Yposition Zposition Xrotation Yrotation Zrotation
				JOINT mixamorig:LeftToeBase
				{
					OFFSET -0.000002 -8.728669 10.710558
					CHANNELS 6 Xposition Yposition Zposition Xrotation Yrotation Zrotation
					JOINT mixamorig:LeftToe_End
					{
						OFFSET -0.000003 -0.000679 9.278133
						CHANNELS 6 Xposition Yposition Zposition Xrotation Yrotation Zrotation
						End Site
						{
							OFFSET 0.000000 -0.068021 927.813477
						}
					}
				}
			}
		}
	}
}
MOTION
Frames: 3
Frame Time: 0.033333
0.000006 104.270477 1.554256 0.000010 0.000003 -0.000113 -0.000005 10.181587 0.131522 0.000001 -0.000003 0.000084 -0.000000 9.893967 -1.470711 0.000001 0.000000 -0.000000 -0.000000 9.220802 -1.370642 0.000000 -0.000000 -0.000000 0.000001 16.740433 -2.049030 0.000000 -0.000000 -0.000000 0.000000 9.617859 1.685014 0.000000 0.000000 0.000000 0.000002 22.037384 7.501101 0.000000 -0.000000 0.000000 -4.569968 11.014880 -2.160881 0.000008 0.000001 -0.000038 -10.592882 -0.524729 -2.231944 73.695781 20.590819 -15.503730 -27.841526 0.000015 0.000554 -52.670044 108.225577 68.753975 -28.328806 0.000023 0.000030 -0.000321 -0.000045 0.000004 -2.464443 -1.573866 2.682360 -38.539626 -156.862452 10.775281 -3.215281 -1.872565 1.924656 152.158843 31.966484 8.466041 -2.654971 -1.527876 1.513066 143.741905 27.795042 -33.793700 -2.018831 -1.152030 1.108069 -0.000003 -0.000003 0.000004 -9.108403 -0.517568 2.260137 99.570771 17.896361 -21.154318 -3.700084 0.000316 0.001515 95.964308 14.702792 -16.271761 -2.850077 0.000361 -0.000261 96.015582 12.422875 -13.787130 -2.772172 -0.000000 -0.000019 -0.000000 -0.000000 0.000000 -9.532618 0.000267 0.000241 92.006357 18.196251 -18.983587 -3.700068 0.000322 0.003979 94.736800 12.090022 -13.021838 -2.950055 0.000325 -0.001801 97.669977 12.754436 -14.560561 -2.946627 0.000014 -0.000154 -0.000002 -0.000000 0.000001 -9.103724 -0.042774 -1.864886 90.385703 19.945701 -20.031644 -3.379325 0.000338 -0.000817 91.966694 8.066999 -8.365372 -2.889748 0.000373 0.000636 98.896706 6.287736 -7.398621 -2.638805 -0.000001 0.000944 0.000004 -0.000001 -0.000002 -8.076775 -0.486402 -3.806040 83.589528 20.706617 -18.410912 -3.600066 0.000286 -0.003535 87.747898 9.128543 -8.433474 -2.100012 0.000316 -0.005506 90.348192 5.548392 -5.361771 -2.115760 -0.000042 -0.003690 0.000001 -0.000002 -0.000000 4.570446 11.014691 -2.160851 -0.000018 0.000010 -0.000021 10.592503 -0.524546 -2.232388 55.967134 -62.416509 35.686478 27.841753 -0.000052 -0.000106 -134.287052 -74.160623 -121.698753 28.328831 -0.000029 0.000032 0.000019 -0.000088 0.000000 2.466167 -1.576130 2.681885 109.420867 152.479670 -156.476205 3.217798 -1.872010 1.916517 -102.645831 46.978929 409.320150 2.656029 -1.528808 1.514608 -120.292677 49.219760 64.973643 2.020888 -1.154082 1.115147 0.000003 0.000006 0.000001 9.109417 -0.517753 2.259813 -226.892751 -14.100116 31.803266 3.700032 0.000025 -0.000388 -320.246205 -25.476261 -350.646940 2.850039 0.000022 0.000380 -179.068613 -159.826823 -179.834510 2.774874 -0.000028 -0.000028 -0.000000 -0.000002 -0.000001 9.533462 0.000322 -0.000060 -231.698240 -7.138750 14.656539 3.700024 0.000023 -0.000311 -144.563891 -169.130223 183.481202 2.950014 -0.000017 -0.000012 -369.258468 -11.046339 -360.897169 2.952859 -0.000014 0.000063 0.000001 -0.000003 -0.000000 9.104621 -0.042745 -1.865151 -225.626201 -11.010425 25.815772 3.149994 0.000063 -0.000081 -326.968778 6.071622 -1.801472 2.949982 0.000003 0.000054 -372.508026 3.283443 0.359721 2.644325 0.000033 0.000053 0.000001 0.000000 -0.000000 8.077896 -0.486580 -3.806334 -223.308404 -12.096490 31.328790 3.599953 0.000042 0.014656 -339.127334 11.232846 357.958904 2.100001 -0.000009 0.007724 -194.519867 164.529681 -178.123875 2.125509 -0.000001 0.007516 0.000000 -0.000000 0.000001 -8.207786 -6.751667 -1.599560 -0.077001 -0.000003 0.000080 -0.000002 -44.370110 0.345938 0.153719 -0.000000 -0.000000 0.000000 -44.423679 -3.043532 -0.076700 0.000000 -0.000002 -0.000006 -8.728667 10.710559 -0.000009 -0.000000 -0.000000 -0.000001 -0.000679 9.278123 0.000000 -0.000000 -0.000000 8.207792 -6.751710 -1.599556 -0.074518 -0.000003 0.000081 -0.000002 -44.370014 0.346960 0.148822 0.000002 0.000000 -0.000001 -44.423664 -3.044403 -0.074314 0.000000 -0.000002 -0.000004 -8.728671 10.710558 0.000007 -0.000000 -0.000000 0.000000 -0.000680 9.278137 -0.000000 0.000000 -0.000001 
0.000006 104.270477 1.554256 0.000010 0.000003 -0.000113 -0.000005 10.181587 0.131522 0.000001 -0.000003 0.000084 -0.000000 9.893967 -1.470711 0.000001 0.000000 -0.000000 -0.000000 9.220802 -1.370642 0.000000 -0.000000 -0.000000 0.000001 16.740433 -2.049030 0.000000 -0.000000 -0.000000 0.000000 9.617859 1.685014 0.000000 0.000000 0.000000 0.000002 22.037384 7.501101 0.000000 -0.000000 0.000000 -4.569968 11.014880 -2.160881 0.000008 0.000001 -0.000038 -10.592882 -0.524714 -2.231960 73.772928 17.841007 -13.436158 -27.841518 -0.000004 0.000521 -52.650933 108.865928 69.362354 -28.328827 0.000019 0.000031 -0.000316 -0.000044 0.000006 -2.464411 -1.573851 2.682361 -39.212123 -157.359567 9.480376 -3.215269 -1.872574 1.924622 151.437137 32.375394 12.221766 -2.654960 -1.527866 1.513066 144.564765 27.772507 -32.208242 -2.018850 -1.152011 1.108067 -0.000004 -0.000003 0.000002 -9.108381 -0.517567 2.260133 99.584083 17.650575 -20.871057 -3.700096 0.000307 0.001519 96.530503 14.903546 -16.656130 -2.850082 0.000366 -0.000252 96.646268 12.679371 -14.226377 -2.772146 -0.000000 -0.000022 0.000002 -0.000001 -0.000001 -9.532591 0.000257 0.000248 92.153698 17.468205 -18.276137 -3.700087 0.000325 0.003965 94.729109 11.805750 -12.712247 -2.950072 0.000315 -0.001780 97.313134 12.714048 -14.424612 -2.946639 0.000001 -0.000153 -0.000004 0.000002 -0.000001 -9.103703 -0.042764 -1.864876 90.611086 19.108484 -19.263642 -3.379313 0.000330 -0.000816 92.203674 7.660641 -7.977712 -2.889764 0.000353 0.000669 98.577969 6.136463 -7.181460 -2.638825 -0.000013 0.000942 0.000002 -0.000000 -0.000003 -8.076755 -0.486400 -3.806031 83.241462 20.150967 -17.804227 -3.600048 0.000292 -0.003522 87.796829 8.704922 -8.034708 -2.100001 0.000325 -0.005495 90.045314 5.239100 -5.024978 -2.115765 -0.000042 -0.003686 -0.000001 0.000001 -0.000005 4.570446 11.014691 -2.160851 -0.000018 0.000010 -0.000021 10.592500 -0.524541 -2.232388 55.929199 -61.212920 34.871394 27.841759 -0.000049 -0.000118 -134.123974 -74.820891 -122.087377 28.328840 -0.000028 0.000018 0.000018 -0.000088 -0.000000 2.466173 -1.576164 2.681890 114.499925 156.274619 -159.402586 3.217819 -1.872010 1.916536 -98.674944 46.162363 406.162854 2.655997 -1.528800 1.514575 -123.071321 51.329900 68.489865 2.020890 -1.154067 1.115162 0.000002 0.000003 0.000006 9.109419 -0.517779 2.259794 -228.378249 -14.529397 31.659826 3.700035 0.000020 -0.000409 -322.252970 -22.302246 -352.281978 2.850029 0.000008 0.000357 -173.258253 -160.457372 -178.837930 2.774897 -0.000041 -0.000027 0.000004 0.000001 -0.000001 9.533428 0.000341 -0.000077 -242.024311 -2.680792 4.445499 3.700025 0.000027 -0.000318 -146.154041 -170.815682 182.799003 2.950012 -0.000024 -0.000027 -366.930849 -12.795859 -360.777996 2.952859 -0.000030 0.000062 0.000001 0.000002 -0.000001 9.104603 -0.042746 -1.865185 -235.877031 -10.377658 19.436869 3.149992 0.000064 -0.000069 -326.833895 4.332559 -1.290366 2.949986 0.000013 0.000069 -367.723424 0.533594 0.035912 2.644320 0.000046 0.000057 0.000001 0.000001 -0.000001 8.077881 -0.486610 -3.806346 -225.657839 -11.816351 28.977617 3.599945 0.000038 0.014613 -335.303030 10.704868 357.700340 2.099997 -0.000017 0.007718 -186.441625 165.100139 -179.232346 2.125508 -0.000017 0.007504 0.000001 -0.000000 -0.000002 -8.207786 -6.751667 -1.599560 -0.077001 -0.000003 0.000080 -0.000002 -44.370110 0.345938 0.153719 -0.000000 -0.000000 0.000000 -44.423679 -3.043532 -0.076700 0.000000 -0.000002 -0.000006 -8.728667 10.710559 -0.000009 -0.000000 -0.000000 -0.000001 -0.000679 9.278123 0.000000 -0.000000 -0.000000 8.207792 -6.751710 -1.599556 -0.074518 -0.000003 0.000081 -0.000002 -44.370014 0.346960 0.148822 0.000002 0.000000 -0.000001 -44.423664 -3.044403 -0.074314 0.000000 -0.000002 -0.000004 -8.728671 10.710558 0.000007 -0.000000 -0.000000 0.000000 -0.000680 9.278137 -0.000000 0.000000 -0.000001 
0.000006 104.270477 1.554256 0.000010 0.000003 -0.000113 -0.000005 10.181587 0.131522 0.000001 -0.000003 0.000084 -0.000000 9.893967 -1.470711 0.000001 0.000000 -0.000000 -0.000000 9.220802 -1.370642 0.000000 -0.000000 -0.000000 0.000001 16.740433 -2.049030 0.000000 -0.000000 -0.000000 0.000000 9.617859 1.685014 0.000000 0.000000 0.000000 0.000002 22.037384 7.501101 0.000000 -0.000000 0.000000 -4.569968 11.014880 -2.160881 0.000008 0.000001 -0.000038 -10.592877 -0.524725 -2.231928 73.757321 21.376978 -16.119354 -27.841522 0.000012 0.000532 -51.913177 108.235597 67.874814 -28.328815 0.000021 0.000028 -0.000319 -0.000046 0.000008 -2.464424 -1.573828 2.682349 -41.737346 -159.413979 4.427262 -3.215265 -1.872565 1.924634 151.211564 32.217975 11.398989 -2.654951 -1.527852 1.513065 143.563254 27.907494 -32.544301 -2.018831 -1.152015 1.108066 -0.000005 -0.000006 0.000004 -9.108391 -0.517562 2.260127 100.630878 17.389957 -20.942277 -3.700078 0.000302 0.001525 97.314425 15.355030 -17.394409 -2.850097 0.000376 -0.000248 97.533722 13.080734 -14.904026 -2.772181 -0.000001 -0.000021 0.000000 -0.000000 0.000001 -9.532607 0.000257 0.000237 91.963429 17.229391 -17.969451 -3.700075 0.000323 0.003968 93.723268 12.001807 -12.700916 -2.950058 0.000340 -0.001787 96.363246 12.932982 -14.432142 -2.946622 0.000001 -0.000155 -0.000001 0.000000 0.000002 -9.103712 -0.042767 -1.864870 89.917152 19.136071 -19.063548 -3.379307 0.000330 -0.000820 91.472687 7.399933 -7.609361 -2.889737 0.000347 0.000631 97.100694 5.831047 -6.651637 -2.638815 0.000002 0.000941 0.000005 0.000000 -0.000001 -8.076760 -0.486395 -3.806026 82.052572 19.793108 -17.127971 -3.600030 0.000279 -0.003526 86.795551 8.151838 -7.374919 -2.100013 0.000321 -0.005497 88.621431 4.728933 -4.405262 -2.115761 -0.000041 -0.003674 -0.000001 -0.000000 -0.000003 4.570446 11.014691 -2.160851 -0.000018 0.000010 -0.000021 10.592499 -0.524540 -2.232392 56.834117 -59.621951 34.448944 27.841755 -0.000052 -0.000115 -132.742514 -75.084208 -120.696150 28.328831 -0.000029 0.000024 0.000019 -0.000087 0.000000 2.466159 -1.576150 2.681878 117.280003 157.868539 -160.816708 3.217832 -1.872030 1.916526 -96.474551 45.864799 404.516806 2.656018 -1.528795 1.514606 -122.334261 52.091602 68.297985 2.020891 -1.154085 1.115151 0.000001 0.000005 0.000002 9.109397 -0.517740 2.259810 -220.025050 -9.592042 25.912372 3.700028 0.000049 -0.000438 -313.275123 -20.139393 -351.218272 2.850017 0.000048 0.000336 -167.007660 -163.403260 -178.097292 2.774864 -0.000019 -0.000027 -0.000001 0.000003 -0.000003 9.533408 0.000397 -0.000045 -224.942404 -0.400372 0.950467 3.700031 0.000051 -0.000341 -137.196794 -171.737430 183.242036 2.950027 -0.000027 -0.000058 -358.550699 -10.906228 -359.861384 2.952873 -0.000014 0.000065 0.000002 0.000000 0.000000 9.104598 -0.042689 -1.865146 -213.775400 -5.487333 17.946605 3.149990 0.000102 -0.000104 -317.368401 4.774993 -1.863603 2.949982 0.000007 0.000038 -360.079677 0.699065 0.000479 2.644327 0.000050 0.000063 0.000003 -0.000001 -0.000001 8.077891 -0.486573 -3.806285 -208.188510 -7.360048 30.989272 3.599934 0.000059 0.014573 -326.540252 13.312809 356.053663 2.099973 0.000014 0.007679 -181.020818 164.012240 -179.917087 2.125489 0.000015 0.007516 -0.000001 -0.000002 -0.000000 -8.207786 -6.751667 -1.599560 -0.077001 -0.000003 0.000080 -0.000002 -44.370110 0.345938 0.153719 -0.000000 -0.000000 0.000000 -44.423679 -3.043532 -0.076700 0.000000 -0.000002 -0.000006 -8.728667 10.710559 -0.000009 -0.000000 -0.000000 -0.000001 -0.000679 9.278123 0.000000 -0.000000 -0.000000 8.207792 -6.751710 -1.599556 -0.074518 -0.000003 0.000081 -0.000002 -44.370014 0.346960 0.148822 0.000002 0.000000 -0.000001 -44.423664 -3.044403 -0.074314 0.000000 -0.000002 -0.000004 -8.728671 10.710558 0.000007 -0.000000 -0.000000 0.000000 -0.000680 9.278137 -0.000000 0.000000 -0.000001 
